<svg width="607" height="78" viewBox="0 0 607 78" fill="none" xmlns="http://www.w3.org/2000/svg">
<path d="M1.21875 9.90625C0.71875 9.21875 0.46875 8.59375 0.46875 8.03125C0.46875 7.09375 0.90625 6.28125 1.78125 5.59375C2.65625 4.90625 3.5625 4.5625 4.5 4.5625C5.125 4.5625 5.6875 4.78125 6.1875 5.21875C6.75 5.59375 7.25 6.09375 7.6875 6.71875C8.1875 7.34375 8.625 8 9 8.6875C9.4375 9.3125 9.8125 9.90625 10.125 10.4688C11.5625 9.21875 13.1875 8.15625 15 7.28125C16.8125 6.40625 18.8438 5.96875 21.0938 5.96875C24.3438 5.96875 27.0625 6.5 29.25 7.5625C31.5 8.5625 33.3125 9.90625 34.6875 11.5938C36.125 13.2812 37.1875 15.2188 37.875 17.4062C38.5625 19.5312 38.9688 21.7188 39.0938 23.9688C39.0938 25.2812 38.9062 26.6875 38.5312 28.1875C38.1562 29.6875 37.5625 31.1562 36.75 32.5938C36 34.0312 35.0312 35.375 33.8438 36.625C32.6562 37.8125 31.25 38.8125 29.625 39.625C31.625 41.5625 33.4375 44 35.0625 46.9375C36.75 49.8125 38.0312 53.0312 38.9062 56.5938C38.9062 56.7188 38.9062 56.8438 38.9062 56.9688C38.9688 57.0312 39 57.125 39 57.25C39 58.25 38.5625 59 37.6875 59.5C36.875 60.0625 35.9375 60.3438 34.875 60.3438C34.3125 60.3438 33.7812 60.2188 33.2812 59.9688C32.7812 59.7188 32.4688 59.3438 32.3438 58.8438C31.2812 54.9062 29.9062 51.5 28.2188 48.625C26.5312 45.75 24.25 43.2812 21.375 41.2188C18.375 41.2188 15.8125 40.6562 13.6875 39.5312C13.6875 43.2812 13.625 46.8438 13.5 50.2188C13.375 53.5938 13.1562 56.4062 12.8438 58.6562C12.7188 59.5938 12.3125 60.2812 11.625 60.7188C11 61.2188 10.3438 61.4688 9.65625 61.4688C8.59375 61.4688 7.625 61.1875 6.75 60.625C5.9375 60.0625 5.53125 59.2812 5.53125 58.2812C5.53125 55.6562 5.625 52.5938 5.8125 49.0938C6.0625 45.5938 6.1875 41.9375 6.1875 38.125C6.1875 34.5 6.15625 30.9062 6.09375 27.3438C6.03125 23.7812 5.90625 20.5938 5.71875 17.7812C5.15625 16.5938 4.5 15.3125 3.75 13.9375C3 12.5625 2.15625 11.2188 1.21875 9.90625ZM12.9375 17.4062C13.125 19.6562 13.25 22.0312 13.3125 24.5312C13.4375 26.9688 13.5312 29.4375 13.5938 31.9375C14.6562 32.9375 15.8438 33.6562 17.1562 34.0938C18.5312 34.4688 20.1562 34.6562 22.0312 34.6562C23.9062 34.6562 25.4688 34.25 26.7188 33.4375C27.9688 32.625 28.9688 31.625 29.7188 30.4375C30.4688 29.25 31 28 31.3125 26.6875C31.625 25.3125 31.7812 24.0938 31.7812 23.0312C31.6562 21.9062 31.375 20.75 30.9375 19.5625C30.5 18.375 29.875 17.3125 29.0625 16.375C28.25 15.4375 27.2188 14.6562 25.9688 14.0312C24.7812 13.4062 23.3438 13.0938 21.6562 13.0938C19.4688 13.0938 17.6875 13.5 16.3125 14.3125C14.9375 15.125 13.8125 16.1562 12.9375 17.4062ZM76.0312 32.0312C77.9688 34.7188 78.9375 37.0625 78.9375 39.0625C78.9375 41.1875 77.8438 42.5938 75.6562 43.2812L56.0625 49.0938C56.875 50.3438 57.9062 51.3125 59.1562 52C60.4688 52.6875 61.7812 53.0312 63.0938 53.0312C65.1562 53.0312 67.0938 52.7188 68.9062 52.0938C70.7812 51.4062 72.5312 50.2188 74.1562 48.5312C74.5938 48.0938 75.0938 47.875 75.6562 47.875C76.4062 47.875 77.1562 48.25 77.9062 49C78.7188 49.6875 79.125 50.4688 79.125 51.3438C79.125 52.2188 78.6875 53.125 77.8125 54.0625C77 55 75.9062 55.9062 74.5312 56.7812C73.1562 57.5938 71.5938 58.25 69.8438 58.75C68.0938 59.3125 66.3125 59.5938 64.5 59.5938C62.6875 59.5938 60.75 59.3125 58.6875 58.75C56.6875 58.1875 54.8125 57.3125 53.0625 56.125C51.3125 54.875 49.875 53.2812 48.75 51.3438C47.625 49.4062 47.0625 47.0312 47.0625 44.2188C47.0625 41.2188 48.0312 37.7812 49.9688 33.9062C51.2188 31.4688 53.125 29.6875 55.6875 28.5625C58.3125 27.375 61.0625 26.7812 63.9375 26.7812C66.3125 26.7812 68.5625 27.2188 70.6875 28.0938C72.875 28.9688 74.6562 30.2812 76.0312 32.0312ZM54.4688 42.8125L71.5312 37.8438C71.2188 36.2188 70.375 35.0312 69 34.2812C67.6875 33.4688 66.2188 33.0625 64.5938 33.0625C62.7812 33.0625 61.2188 33.4062 59.9062 34.0938C58.6562 34.7188 57.625 35.5312 56.8125 36.5312C56 37.5312 55.4062 38.5938 55.0312 39.7188C54.6562 40.8438 54.4688 41.875 54.4688 42.8125ZM98.0625 28.75C98.4375 28.4375 98.9688 28.2812 99.6562 28.2812C101.781 28.4688 103.688 29.0625 105.375 30.0625C107.062 31 108.469 32.1875 109.594 33.625C110.781 35 111.656 36.5312 112.219 38.2188C112.844 39.9062 113.156 41.5312 113.156 43.0938V43.5625C113.594 45 114.062 46.125 114.562 46.9375C115.062 47.75 115.594 48.375 116.156 48.8125C116.781 49.25 117.375 49.5312 117.938 49.6562C118.562 49.7188 119.188 49.75 119.812 49.75C120.375 49.75 120.969 49.625 121.594 49.375C122.281 49.125 123.062 49 123.938 49C124.75 49 125.406 49.3438 125.906 50.0312C126.469 50.6562 126.75 51.3438 126.75 52.0938C126.75 52.7812 126.531 53.4062 126.094 53.9688C125.719 54.4688 125.188 54.9062 124.5 55.2812C123.875 55.5938 123.156 55.8438 122.344 56.0312C121.594 56.1562 120.844 56.2188 120.094 56.2188C117.719 56.2188 115.656 55.7188 113.906 54.7188C112.156 53.7188 110.781 52.5625 109.781 51.25C108.531 52.6875 107.031 53.8125 105.281 54.625C103.531 55.4375 101.688 55.8438 99.75 55.8438C98 55.8438 96.25 55.5625 94.5 55C92.75 54.4375 91.1875 53.5938 89.8125 52.4688C88.4375 51.3438 87.3125 49.9688 86.4375 48.3438C85.5625 46.6562 85.125 44.6875 85.125 42.4375C85.125 41.125 85.3438 39.75 85.7812 38.3125C86.2812 36.875 87 35.5 87.9375 34.1875C88.875 32.875 90 31.7188 91.3125 30.7188C92.6875 29.7188 94.2812 29.0312 96.0938 28.6562H96.6562C97.2812 28.6562 97.75 28.6875 98.0625 28.75ZM98.625 34.6562C96.4375 35.3438 94.8438 36.3438 93.8438 37.6562C92.8438 38.9062 92.3438 40.375 92.3438 42.0625C92.3438 44.0625 92.8438 45.7812 93.8438 47.2188C94.9062 48.5938 96.8438 49.2812 99.6562 49.2812C101.281 49.2812 102.719 48.6875 103.969 47.5C105.219 46.3125 105.844 44.7188 105.844 42.7188C105.844 41.3438 105.625 40.2188 105.188 39.3438C104.812 38.4062 104.281 37.6562 103.594 37.0938C102.969 36.4688 102.219 36 101.344 35.6875C100.469 35.3125 99.5625 34.9688 98.625 34.6562ZM133.031 9.90625C132.531 9.21875 132.281 8.59375 132.281 8.03125C132.281 7.09375 132.719 6.28125 133.594 5.59375C134.469 4.90625 135.375 4.5625 136.312 4.5625C137.188 4.5625 138.031 5 138.844 5.875C139.719 6.75 140.5 7.8125 141.188 9.0625C141.875 10.25 142.5 11.5 143.062 12.8125C143.625 14.0625 144.094 15.0938 144.469 15.9062C144.656 18.5938 144.781 21.3125 144.844 24.0625C144.906 26.75 144.938 29.5 144.938 32.3125C144.938 36.8125 144.875 41.1562 144.75 45.3438C144.688 49.4688 144.594 53.4062 144.469 57.1562C144.406 58.0938 144.094 58.7812 143.531 59.2188C142.969 59.7188 142.281 59.9688 141.469 59.9688C140.531 59.9688 139.594 59.6875 138.656 59.125C137.781 58.5625 137.344 57.7812 137.344 56.7812C137.344 54.1562 137.438 51.1875 137.625 47.875C137.875 44.5 138 41 138 37.375C138 33.9375 137.969 30.5312 137.906 27.1562C137.844 23.7188 137.719 20.5938 137.531 17.7812C136.969 16.5938 136.312 15.3125 135.562 13.9375C134.812 12.5625 133.969 11.2188 133.031 9.90625ZM155.906 9.90625C155.406 9.21875 155.156 8.59375 155.156 8.03125C155.156 7.09375 155.594 6.28125 156.469 5.59375C157.344 4.90625 158.25 4.5625 159.188 4.5625C160.062 4.5625 160.906 5 161.719 5.875C162.594 6.75 163.375 7.8125 164.062 9.0625C164.75 10.25 165.375 11.5 165.938 12.8125C166.5 14.0625 166.969 15.0938 167.344 15.9062C167.531 18.5938 167.656 21.3125 167.719 24.0625C167.781 26.75 167.812 29.5 167.812 32.3125C167.812 36.8125 167.75 41.1562 167.625 45.3438C167.562 49.4688 167.469 53.4062 167.344 57.1562C167.281 58.0938 166.969 58.7812 166.406 59.2188C165.844 59.7188 165.156 59.9688 164.344 59.9688C163.406 59.9688 162.469 59.6875 161.531 59.125C160.656 58.5625 160.219 57.7812 160.219 56.7812C160.219 54.1562 160.312 51.1875 160.5 47.875C160.75 44.5 160.875 41 160.875 37.375C160.875 33.9375 160.844 30.5312 160.781 27.1562C160.719 23.7188 160.594 20.5938 160.406 17.7812C159.844 16.5938 159.188 15.3125 158.438 13.9375C157.688 12.5625 156.844 11.2188 155.906 9.90625ZM194.906 73.6562C193.094 75.0938 191 75.8125 188.625 75.8125C186.562 75.8125 184.5 75.3125 182.438 74.3125C180.438 73.3125 178.844 71.9688 177.656 70.2812C177.406 70.0312 177.281 69.6875 177.281 69.25C177.281 68.4375 177.562 67.5625 178.125 66.625C178.75 65.75 179.469 65.3125 180.281 65.3125C180.594 65.3125 180.906 65.4062 181.219 65.5938C182.344 66.5938 183.5 67.375 184.688 67.9375C185.938 68.5 187.125 68.7812 188.25 68.7812C190.312 68.7812 191.969 67.4688 193.219 64.8438C194.531 62.2812 195.562 58.5 196.312 53.5C195.375 53.8125 194.406 54.0625 193.406 54.25C192.469 54.375 191.469 54.4375 190.406 54.4375C189.469 54.4375 188.188 54.375 186.562 54.25C184.938 54.125 183.312 53.5625 181.688 52.5625C180.062 51.5625 178.656 50 177.469 47.875C176.281 45.6875 175.688 42.5312 175.688 38.4062C175.688 37.2812 175.719 36.125 175.781 34.9375C175.844 33.75 175.906 32.5938 175.969 31.4688C176.094 30.2812 176.219 29.1875 176.344 28.1875C176.469 27.125 176.594 26.2188 176.719 25.4688C176.844 24.4688 177.219 23.75 177.844 23.3125C178.469 22.875 179.156 22.6562 179.906 22.6562C180.781 22.6562 181.594 22.9062 182.344 23.4062C183.094 23.9062 183.469 24.5938 183.469 25.4688C183.469 26.5938 183.344 27.9688 183.094 29.5938C182.844 31.2188 182.719 32.9062 182.719 34.6562C182.719 37.0938 182.781 39.1562 182.906 40.8438C183.031 42.4688 183.375 43.8125 183.938 44.875C184.5 45.875 185.312 46.5938 186.375 47.0312C187.5 47.4688 189 47.6875 190.875 47.6875C192 47.6875 193 47.5312 193.875 47.2188C194.812 46.9062 195.906 46.5938 197.156 46.2812C197.531 41.5938 197.719 36.875 197.719 32.125C197.719 30 197.688 27.9688 197.625 26.0312C197.562 24.0312 197.469 22.2188 197.344 20.5938C197.344 19.9062 197.688 19.3438 198.375 18.9062C199.062 18.4062 199.906 18.1562 200.906 18.1562C201.656 18.1562 202.375 18.3125 203.062 18.625C203.75 18.875 204.219 19.3438 204.469 20.0312C204.594 21.4688 204.688 23 204.75 24.625C204.812 26.1875 204.844 27.7812 204.844 29.4062C204.844 33.7812 204.625 38.3125 204.188 43C203.812 47.625 203.188 52 202.312 56.125C201.5 60.25 200.469 63.875 199.219 67C197.969 70.125 196.531 72.3438 194.906 73.6562ZM351.844 9.90625C351.344 9.21875 351.094 8.59375 351.094 8.03125C351.094 7.09375 351.531 6.28125 352.406 5.59375C353.281 4.90625 354.188 4.5625 355.125 4.5625C355.75 4.5625 356.312 4.78125 356.812 5.21875C357.375 5.59375 357.875 6.09375 358.312 6.71875C358.812 7.34375 359.25 8 359.625 8.6875C360.062 9.3125 360.438 9.90625 360.75 10.4688C362.188 9.21875 363.812 8.15625 365.625 7.28125C367.438 6.40625 369.469 5.96875 371.719 5.96875C374.969 5.96875 377.688 6.5 379.875 7.5625C382.125 8.5625 383.938 9.90625 385.312 11.5938C386.75 13.2812 387.812 15.2188 388.5 17.4062C389.188 19.5312 389.594 21.7188 389.719 23.9688C389.719 25.2812 389.531 26.6875 389.156 28.1875C388.781 29.6875 388.188 31.1562 387.375 32.5938C386.625 34.0312 385.656 35.375 384.469 36.625C383.281 37.8125 381.875 38.8125 380.25 39.625C382.25 41.5625 384.062 44 385.688 46.9375C387.375 49.8125 388.656 53.0312 389.531 56.5938C389.531 56.7188 389.531 56.8438 389.531 56.9688C389.594 57.0312 389.625 57.125 389.625 57.25C389.625 58.25 389.188 59 388.312 59.5C387.5 60.0625 386.562 60.3438 385.5 60.3438C384.938 60.3438 384.406 60.2188 383.906 59.9688C383.406 59.7188 383.094 59.3438 382.969 58.8438C381.906 54.9062 380.531 51.5 378.844 48.625C377.156 45.75 374.875 43.2812 372 41.2188C369 41.2188 366.438 40.6562 364.312 39.5312C364.312 43.2812 364.25 46.8438 364.125 50.2188C364 53.5938 363.781 56.4062 363.469 58.6562C363.344 59.5938 362.938 60.2812 362.25 60.7188C361.625 61.2188 360.969 61.4688 360.281 61.4688C359.219 61.4688 358.25 61.1875 357.375 60.625C356.562 60.0625 356.156 59.2812 356.156 58.2812C356.156 55.6562 356.25 52.5938 356.438 49.0938C356.688 45.5938 356.812 41.9375 356.812 38.125C356.812 34.5 356.781 30.9062 356.719 27.3438C356.656 23.7812 356.531 20.5938 356.344 17.7812C355.781 16.5938 355.125 15.3125 354.375 13.9375C353.625 12.5625 352.781 11.2188 351.844 9.90625ZM363.562 17.4062C363.75 19.6562 363.875 22.0312 363.938 24.5312C364.062 26.9688 364.156 29.4375 364.219 31.9375C365.281 32.9375 366.469 33.6562 367.781 34.0938C369.156 34.4688 370.781 34.6562 372.656 34.6562C374.531 34.6562 376.094 34.25 377.344 33.4375C378.594 32.625 379.594 31.625 380.344 30.4375C381.094 29.25 381.625 28 381.938 26.6875C382.25 25.3125 382.406 24.0938 382.406 23.0312C382.281 21.9062 382 20.75 381.562 19.5625C381.125 18.375 380.5 17.3125 379.688 16.375C378.875 15.4375 377.844 14.6562 376.594 14.0312C375.406 13.4062 373.969 13.0938 372.281 13.0938C370.094 13.0938 368.312 13.5 366.938 14.3125C365.562 15.125 364.438 16.1562 363.562 17.4062ZM426.656 32.0312C428.594 34.7188 429.562 37.0625 429.562 39.0625C429.562 41.1875 428.469 42.5938 426.281 43.2812L406.688 49.0938C407.5 50.3438 408.531 51.3125 409.781 52C411.094 52.6875 412.406 53.0312 413.719 53.0312C415.781 53.0312 417.719 52.7188 419.531 52.0938C421.406 51.4062 423.156 50.2188 424.781 48.5312C425.219 48.0938 425.719 47.875 426.281 47.875C427.031 47.875 427.781 48.25 428.531 49C429.344 49.6875 429.75 50.4688 429.75 51.3438C429.75 52.2188 429.312 53.125 428.438 54.0625C427.625 55 426.531 55.9062 425.156 56.7812C423.781 57.5938 422.219 58.25 420.469 58.75C418.719 59.3125 416.938 59.5938 415.125 59.5938C413.312 59.5938 411.375 59.3125 409.312 58.75C407.312 58.1875 405.438 57.3125 403.688 56.125C401.938 54.875 400.5 53.2812 399.375 51.3438C398.25 49.4062 397.688 47.0312 397.688 44.2188C397.688 41.2188 398.656 37.7812 400.594 33.9062C401.844 31.4688 403.75 29.6875 406.312 28.5625C408.938 27.375 411.688 26.7812 414.562 26.7812C416.938 26.7812 419.188 27.2188 421.312 28.0938C423.5 28.9688 425.281 30.2812 426.656 32.0312ZM405.094 42.8125L422.156 37.8438C421.844 36.2188 421 35.0312 419.625 34.2812C418.312 33.4688 416.844 33.0625 415.219 33.0625C413.406 33.0625 411.844 33.4062 410.531 34.0938C409.281 34.7188 408.25 35.5312 407.438 36.5312C406.625 37.5312 406.031 38.5938 405.656 39.7188C405.281 40.8438 405.094 41.875 405.094 42.8125ZM460.781 26.5938C461.781 26.9062 462.5 27.4375 462.938 28.1875C463.375 28.9375 463.594 29.7188 463.594 30.5312C463.594 31.3438 463.312 32.0938 462.75 32.7812C462.188 33.4062 461.531 33.7188 460.781 33.7188C460.094 33.7188 459.375 33.6875 458.625 33.625C457.875 33.5625 457.094 33.5312 456.281 33.5312C454.469 33.5312 452.719 33.7812 451.031 34.2812C449.406 34.7812 448.094 35.8438 447.094 37.4688C446.281 38.7188 445.719 39.9375 445.406 41.125C445.094 42.25 444.938 43.3125 444.938 44.3125C444.938 46.8125 445.781 48.8125 447.469 50.3125C449.156 51.75 451.094 52.4688 453.281 52.4688C455.344 52.4688 457.031 52.1562 458.344 51.5312C459.719 50.8438 461.219 49.6562 462.844 47.9688C463.281 47.5312 463.781 47.3125 464.344 47.3125C465.094 47.3125 465.844 47.6875 466.594 48.4375C467.406 49.125 467.812 49.9062 467.812 50.7812C467.812 51.5938 467.438 52.5 466.688 53.5C465.938 54.5 464.906 55.4375 463.594 56.3125C462.344 57.125 460.906 57.8125 459.281 58.375C457.719 58.9375 456.094 59.2188 454.406 59.2188C452.656 59.2188 450.781 58.9375 448.781 58.375C446.781 57.875 444.938 57.0312 443.25 55.8438C441.562 54.5938 440.156 53.0312 439.031 51.1562C437.906 49.2812 437.344 46.9688 437.344 44.2188C437.344 41.0938 438.344 37.7188 440.344 34.0938C441.219 32.5312 442.281 31.25 443.531 30.25C444.844 29.25 446.219 28.4688 447.656 27.9062C449.094 27.2812 450.562 26.875 452.062 26.6875C453.625 26.4375 455.125 26.3125 456.562 26.3125C458.125 26.3125 459.531 26.4062 460.781 26.5938ZM477.281 56.7812C477.594 54.3438 477.812 51.8125 477.938 49.1875C478.125 46.5625 478.219 43.9375 478.219 41.3125V29.0312C478.219 28.2812 478.562 27.7188 479.25 27.3438C479.938 26.9062 480.719 26.6875 481.594 26.6875C482.344 26.6875 483.062 26.8438 483.75 27.1562C484.438 27.4688 484.906 27.9688 485.156 28.6562C485.219 30.4062 485.25 32.4375 485.25 34.75C485.312 37.0625 485.344 39.4688 485.344 41.9688C485.344 44.5938 485.25 47.25 485.062 49.9375C484.875 52.5625 484.719 55.0938 484.594 57.5312C484.406 58.5938 483.969 59.375 483.281 59.875C482.594 60.4375 481.844 60.7188 481.031 60.7188C480.156 60.7188 479.312 60.4375 478.5 59.875C477.688 59.3125 477.281 58.4375 477.281 57.25V56.7812ZM486.844 13.6562C486.531 15.2188 485.906 16.4062 484.969 17.2188C484.031 18.0312 482.906 18.4375 481.594 18.4375C481.094 18.4375 480.5 18.375 479.812 18.25C479.125 18.0625 478.469 17.7812 477.844 17.4062C477.281 16.9688 476.781 16.4062 476.344 15.7188C475.906 14.9688 475.688 14.0312 475.688 12.9062C475.688 10.9062 476.25 9.46875 477.375 8.59375C478.5 7.65625 479.969 7.1875 481.781 7.1875C483.594 7.1875 484.906 7.75 485.719 8.875C486.531 10 486.938 11.2812 486.938 12.7188C486.938 12.8438 486.906 13 486.844 13.1875C486.844 13.375 486.844 13.5312 486.844 13.6562ZM495.844 30.5312C495.344 29.8438 495.094 29.2188 495.094 28.6562C495.094 27.7188 495.531 26.9062 496.406 26.2188C497.281 25.5312 498.188 25.1875 499.125 25.1875C499.875 25.1875 500.531 25.4688 501.094 26.0312C501.719 26.5938 502.281 27.25 502.781 28C503.281 28.75 503.719 29.5625 504.094 30.4375C504.469 31.25 504.781 31.9375 505.031 32.5C506.281 31.5 507.875 30.625 509.812 29.875C511.812 29.0625 513.938 28.6562 516.188 28.6562C518.188 28.6562 520.094 29.0625 521.906 29.875C523.781 30.6875 525.406 31.7812 526.781 33.1562C528.219 34.5312 529.344 36.1875 530.156 38.125C531.031 40 531.469 42 531.469 44.125C531.469 45.875 531.188 47.75 530.625 49.75C530.062 51.75 529.125 53.5938 527.812 55.2812C526.5 56.9688 524.781 58.375 522.656 59.5C520.594 60.625 518.062 61.1875 515.062 61.1875C513.625 61.1875 512.219 61.0312 510.844 60.7188C509.469 60.4688 508.156 60.0938 506.906 59.5938C506.844 63.0938 506.781 65.9688 506.719 68.2188C506.719 70.4688 506.594 72.25 506.344 73.5625C506.156 74.875 505.75 75.7812 505.125 76.2812C504.562 76.8438 503.688 77.125 502.5 77.125C501.625 77 500.875 76.6875 500.25 76.1875C499.688 75.75 499.406 75.125 499.406 74.3125V73.8438L499.688 66.5312C499.812 63.9688 499.875 61.2812 499.875 58.4688C499.938 55.7188 499.969 52.9688 499.969 50.2188C499.969 47.5312 499.938 45.0938 499.875 42.9062C499.875 40.6562 499.844 39.1562 499.781 38.4062C499.094 37.3438 498.469 36.1562 497.906 34.8438C497.406 33.4688 496.719 32.0312 495.844 30.5312ZM506.812 39.5312C506.812 41.2812 506.844 43.3438 506.906 45.7188C506.969 48.0312 507 50.4375 507 52.9375C509.438 54 511.875 54.5312 514.312 54.5312C516.25 54.5312 517.844 54.25 519.094 53.6875C520.406 53.125 521.438 52.4062 522.188 51.5312C522.938 50.5938 523.438 49.5625 523.688 48.4375C524 47.3125 524.156 46.2188 524.156 45.1562C524.156 42.1562 523.312 39.8125 521.625 38.125C520 36.4375 517.875 35.5938 515.25 35.5938C513.438 35.5938 511.875 36 510.562 36.8125C509.312 37.5625 508.062 38.4688 506.812 39.5312ZM567.469 32.0312C569.406 34.7188 570.375 37.0625 570.375 39.0625C570.375 41.1875 569.281 42.5938 567.094 43.2812L547.5 49.0938C548.312 50.3438 549.344 51.3125 550.594 52C551.906 52.6875 553.219 53.0312 554.531 53.0312C556.594 53.0312 558.531 52.7188 560.344 52.0938C562.219 51.4062 563.969 50.2188 565.594 48.5312C566.031 48.0938 566.531 47.875 567.094 47.875C567.844 47.875 568.594 48.25 569.344 49C570.156 49.6875 570.562 50.4688 570.562 51.3438C570.562 52.2188 570.125 53.125 569.25 54.0625C568.438 55 567.344 55.9062 565.969 56.7812C564.594 57.5938 563.031 58.25 561.281 58.75C559.531 59.3125 557.75 59.5938 555.938 59.5938C554.125 59.5938 552.188 59.3125 550.125 58.75C548.125 58.1875 546.25 57.3125 544.5 56.125C542.75 54.875 541.312 53.2812 540.188 51.3438C539.062 49.4062 538.5 47.0312 538.5 44.2188C538.5 41.2188 539.469 37.7812 541.406 33.9062C542.656 31.4688 544.562 29.6875 547.125 28.5625C549.75 27.375 552.5 26.7812 555.375 26.7812C557.75 26.7812 560 27.2188 562.125 28.0938C564.312 28.9688 566.094 30.2812 567.469 32.0312ZM545.906 42.8125L562.969 37.8438C562.656 36.2188 561.812 35.0312 560.438 34.2812C559.125 33.4688 557.656 33.0625 556.031 33.0625C554.219 33.0625 552.656 33.4062 551.344 34.0938C550.094 34.7188 549.062 35.5312 548.25 36.5312C547.438 37.5312 546.844 38.5938 546.469 39.7188C546.094 40.8438 545.906 41.875 545.906 42.8125ZM579.281 38.0312C578.656 37.1562 578.344 35.9375 578.344 34.375C578.344 32.625 578.656 31 579.281 29.5C579.906 27.9375 580.812 26.5938 582 25.4688C583.188 24.3438 584.656 23.4688 586.406 22.8438C588.156 22.1562 590.188 21.8125 592.5 21.8125C593.938 21.8125 595.438 22.0312 597 22.4688C598.562 22.8438 599.969 23.3438 601.219 23.9688C602.531 24.5938 603.594 25.3125 604.406 26.125C605.219 26.875 605.625 27.625 605.625 28.375C605.625 29.4375 605.219 30.2812 604.406 30.9062C603.594 31.5312 602.844 31.8438 602.156 31.8438C601.906 31.8438 601.594 31.7812 601.219 31.6562C599.094 30.5938 597.219 29.8438 595.594 29.4062C593.969 28.9688 592.531 28.75 591.281 28.75C589.281 28.75 587.781 29.3125 586.781 30.4375C585.844 31.5 585.375 32.8438 585.375 34.4688C585.375 35.9688 585.906 37.125 586.969 37.9375C588.031 38.6875 589.344 39.3438 590.906 39.9062C592.531 40.4062 594.281 40.9062 596.156 41.4062C598.031 41.8438 599.75 42.5 601.312 43.375C602.938 44.25 604.281 45.4062 605.344 46.8438C606.406 48.2188 606.938 50.125 606.938 52.5625C606.938 55.875 605.719 58.3125 603.281 59.875C600.906 61.5 597.656 62.3125 593.531 62.3125C591.844 62.3125 590.094 62.2188 588.281 62.0312C586.469 61.8438 584.812 61.5312 583.312 61.0938C581.875 60.7188 580.688 60.1875 579.75 59.5C578.812 58.8125 578.344 57.9375 578.344 56.875C578.344 56.0625 578.562 55.3125 579 54.625C579.5 53.875 580.156 53.5 580.969 53.5C581.094 53.5 581.188 53.5312 581.25 53.5938C581.312 53.5938 581.406 53.5938 581.531 53.5938C583.719 54.5938 585.781 55.2812 587.719 55.6562C589.656 55.9688 591.344 56.125 592.781 56.125C595.594 56.125 597.562 55.7812 598.688 55.0938C599.812 54.4062 600.375 53.4375 600.375 52.1875C600.375 51.1875 599.969 50.3438 599.156 49.6562C598.406 48.9062 597.438 48.3125 596.25 47.875C595.125 47.375 593.875 46.9375 592.5 46.5625C591.188 46.1875 589.969 45.8125 588.844 45.4375C587.094 44.875 585.375 44.0625 583.688 43C582.062 41.9375 580.594 40.2812 579.281 38.0312Z" fill="#204B5A"/>
<path d="M253.031 5.96875C251.781 7.84375 250.562 9.90625 249.375 12.1562C248.188 14.3438 247.156 16.7188 246.281 19.2812C245.406 21.7812 244.688 24.4375 244.125 27.25C243.625 30 243.375 32.9062 243.375 35.9688C243.375 38.6562 243.656 41.2812 244.219 43.8438C244.844 46.4062 245.625 48.8438 246.562 51.1562C247.5 53.4688 248.5 55.625 249.562 57.625C250.688 59.625 251.781 61.4062 252.844 62.9688C253.031 63.3438 253.125 63.6875 253.125 64C253.125 64.9375 252.594 65.7188 251.531 66.3438C250.531 66.9688 249.531 67.2812 248.531 67.2812C247.906 67.2812 247.219 66.8438 246.469 65.9688C245.719 65.0938 244.938 63.9688 244.125 62.5938C243.375 61.2812 242.625 59.8125 241.875 58.1875C241.188 56.5625 240.594 55.0312 240.094 53.5938C239.094 50.7812 238.281 47.7812 237.656 44.5938C237.031 41.3438 236.719 37.8438 236.719 34.0938C236.719 30.8438 237.031 27.6562 237.656 24.5312C238.344 21.3438 239.188 18.3438 240.188 15.5312C241.25 12.7188 242.406 10.1562 243.656 7.84375C244.906 5.46875 246.156 3.46875 247.406 1.84375C247.719 1.53125 248.219 1.375 248.906 1.375C249.906 1.375 250.875 1.6875 251.812 2.3125C252.812 2.9375 253.312 3.78125 253.312 4.84375C253.312 5.21875 253.219 5.59375 253.031 5.96875ZM265.781 4.84375C266.656 3.59375 268.344 2.5 270.844 1.5625C273.344 0.625 276.125 0.15625 279.188 0.15625C281.625 0.15625 283.781 0.53125 285.656 1.28125C287.594 1.96875 289.219 2.96875 290.531 4.28125C291.844 5.53125 292.812 7 293.438 8.6875C294.125 10.375 294.469 12.1875 294.469 14.125C294.469 16.25 294.062 18.25 293.25 20.125C292.5 21.9375 291.469 23.5625 290.156 25C288.844 26.375 287.344 27.5625 285.656 28.5625C283.969 29.5 282.219 30.1562 280.406 30.5312V38.5938C280.219 39.6562 279.719 40.4062 278.906 40.8438C278.156 41.2812 277.375 41.5 276.562 41.5C275.625 41.5 274.875 41.3125 274.312 40.9375C273.75 40.5625 273.469 40.0312 273.469 39.3438L273.656 30.5312C273.656 30.4062 273.625 30.2812 273.562 30.1562C273.562 30.0312 273.562 29.9062 273.562 29.7812C273.562 28.4688 273.938 27.4375 274.688 26.6875C275.438 25.9375 276.344 25.3438 277.406 24.9062C278.469 24.4062 279.594 23.9688 280.781 23.5938C281.969 23.2188 283 22.75 283.875 22.1875C284.938 21.5 285.875 20.5938 286.688 19.4688C287.562 18.2812 288 16.8125 288 15.0625C288 13.875 287.75 12.75 287.25 11.6875C286.812 10.5625 286.156 9.59375 285.281 8.78125C284.469 7.96875 283.5 7.34375 282.375 6.90625C281.312 6.40625 280.156 6.15625 278.906 6.15625C277.094 6.15625 275.312 6.5625 273.562 7.375C271.875 8.125 270.469 9.03125 269.344 10.0938C269.031 10.3438 268.688 10.4688 268.312 10.4688C267.562 10.4688 266.844 10.0625 266.156 9.25C265.469 8.4375 265.125 7.59375 265.125 6.71875C265.125 5.96875 265.344 5.34375 265.781 4.84375ZM273.281 45.9062C273.719 45.7812 274.156 45.7188 274.594 45.7188C275.031 45.7188 275.469 45.7188 275.906 45.7188C277.094 45.7188 278.281 45.875 279.469 46.1875C280.719 46.5 281.844 47.0312 282.844 47.7812C283.844 48.4688 284.656 49.375 285.281 50.5C285.906 51.625 286.219 53.0312 286.219 54.7188C286.219 57.4688 285.25 59.6875 283.312 61.375C281.438 63.125 278.906 64 275.719 64C274.844 64 273.938 63.8438 273 63.5312C272.062 63.2188 271.219 62.75 270.469 62.125C269.719 61.5 269.094 60.7188 268.594 59.7812C268.156 58.8438 267.938 57.75 267.938 56.5C267.938 55.5 268.188 54.4062 268.688 53.2188C269.25 52.0312 269.906 51.2812 270.656 50.9688C269.969 50.7188 269.625 50.2188 269.625 49.4688C269.625 48.7812 269.938 48.0938 270.562 47.4062C271.25 46.6562 272.156 46.1562 273.281 45.9062ZM274.219 51.3438C274.719 51.7188 274.969 52.25 274.969 52.9375C274.969 53.4375 274.75 54 274.312 54.625C273.875 55.25 273.656 55.75 273.656 56.125C273.656 56.8125 273.938 57.4062 274.5 57.9062C275.125 58.3438 275.75 58.5625 276.375 58.5625C277.188 58.5625 277.812 58.4062 278.25 58.0938C278.75 57.8438 279.094 57.5625 279.281 57.25C279.531 56.875 279.688 56.5 279.75 56.125C279.812 55.75 279.844 55.4688 279.844 55.2812C279.844 53.7188 279.5 52.6562 278.812 52.0938C278.125 51.5312 277.156 51.25 275.906 51.25C275.656 51.25 275.375 51.25 275.062 51.25C274.812 51.25 274.531 51.2812 274.219 51.3438ZM305.344 5.96875C305.094 5.46875 304.969 5.0625 304.969 4.75C304.969 3.75 305.438 2.9375 306.375 2.3125C307.375 1.6875 308.375 1.375 309.375 1.375C310 1.375 310.688 1.84375 311.438 2.78125C312.25 3.65625 313.031 4.8125 313.781 6.25C314.594 7.625 315.344 9.125 316.031 10.75C316.781 12.375 317.438 13.9375 318 15.4375C319.062 18.3125 319.938 21.3438 320.625 24.5312C321.312 27.6562 321.656 30.8438 321.656 34.0938C321.656 37.7812 321.344 41.25 320.719 44.5C320.094 47.75 319.281 50.75 318.281 53.5C317.344 56.25 316.25 58.7188 315 60.9062C313.812 63.0938 312.656 64.9688 311.531 66.5312C311.031 67.0938 310.406 67.375 309.656 67.375C308.719 67.375 307.75 67.0625 306.75 66.4375C305.812 65.875 305.344 65.1562 305.344 64.2812C305.344 64.0312 305.469 63.6562 305.719 63.1562C306.719 61.5938 307.75 59.7812 308.812 57.7188C309.938 55.6562 310.938 53.4375 311.812 51.0625C312.688 48.6875 313.406 46.2188 313.969 43.6562C314.594 41.0312 314.906 38.3438 314.906 35.5938C314.906 32.5938 314.625 29.7188 314.062 26.9688C313.5 24.2188 312.75 21.5938 311.812 19.0938C310.938 16.5938 309.938 14.25 308.812 12.0625C307.688 9.8125 306.531 7.78125 305.344 5.96875Z" fill="#204B5A"/>
<path d="M253.031 5.96875C251.781 7.84375 250.562 9.90625 249.375 12.1562C248.188 14.3438 247.156 16.7188 246.281 19.2812C245.406 21.7812 244.688 24.4375 244.125 27.25C243.625 30 243.375 32.9062 243.375 35.9688C243.375 38.6562 243.656 41.2812 244.219 43.8438C244.844 46.4062 245.625 48.8438 246.562 51.1562C247.5 53.4688 248.5 55.625 249.562 57.625C250.688 59.625 251.781 61.4062 252.844 62.9688C253.031 63.3438 253.125 63.6875 253.125 64C253.125 64.9375 252.594 65.7188 251.531 66.3438C250.531 66.9688 249.531 67.2812 248.531 67.2812C247.906 67.2812 247.219 66.8438 246.469 65.9688C245.719 65.0938 244.938 63.9688 244.125 62.5938C243.375 61.2812 242.625 59.8125 241.875 58.1875C241.188 56.5625 240.594 55.0312 240.094 53.5938C239.094 50.7812 238.281 47.7812 237.656 44.5938C237.031 41.3438 236.719 37.8438 236.719 34.0938C236.719 30.8438 237.031 27.6562 237.656 24.5312C238.344 21.3438 239.188 18.3438 240.188 15.5312C241.25 12.7188 242.406 10.1562 243.656 7.84375C244.906 5.46875 246.156 3.46875 247.406 1.84375C247.719 1.53125 248.219 1.375 248.906 1.375C249.906 1.375 250.875 1.6875 251.812 2.3125C252.812 2.9375 253.312 3.78125 253.312 4.84375C253.312 5.21875 253.219 5.59375 253.031 5.96875ZM265.781 4.84375C266.656 3.59375 268.344 2.5 270.844 1.5625C273.344 0.625 276.125 0.15625 279.188 0.15625C281.625 0.15625 283.781 0.53125 285.656 1.28125C287.594 1.96875 289.219 2.96875 290.531 4.28125C291.844 5.53125 292.812 7 293.438 8.6875C294.125 10.375 294.469 12.1875 294.469 14.125C294.469 16.25 294.062 18.25 293.25 20.125C292.5 21.9375 291.469 23.5625 290.156 25C288.844 26.375 287.344 27.5625 285.656 28.5625C283.969 29.5 282.219 30.1562 280.406 30.5312V38.5938C280.219 39.6562 279.719 40.4062 278.906 40.8438C278.156 41.2812 277.375 41.5 276.562 41.5C275.625 41.5 274.875 41.3125 274.312 40.9375C273.75 40.5625 273.469 40.0312 273.469 39.3438L273.656 30.5312C273.656 30.4062 273.625 30.2812 273.562 30.1562C273.562 30.0312 273.562 29.9062 273.562 29.7812C273.562 28.4688 273.938 27.4375 274.688 26.6875C275.438 25.9375 276.344 25.3438 277.406 24.9062C278.469 24.4062 279.594 23.9688 280.781 23.5938C281.969 23.2188 283 22.75 283.875 22.1875C284.938 21.5 285.875 20.5938 286.688 19.4688C287.562 18.2812 288 16.8125 288 15.0625C288 13.875 287.75 12.75 287.25 11.6875C286.812 10.5625 286.156 9.59375 285.281 8.78125C284.469 7.96875 283.5 7.34375 282.375 6.90625C281.312 6.40625 280.156 6.15625 278.906 6.15625C277.094 6.15625 275.312 6.5625 273.562 7.375C271.875 8.125 270.469 9.03125 269.344 10.0938C269.031 10.3438 268.688 10.4688 268.312 10.4688C267.562 10.4688 266.844 10.0625 266.156 9.25C265.469 8.4375 265.125 7.59375 265.125 6.71875C265.125 5.96875 265.344 5.34375 265.781 4.84375ZM273.281 45.9062C273.719 45.7812 274.156 45.7188 274.594 45.7188C275.031 45.7188 275.469 45.7188 275.906 45.7188C277.094 45.7188 278.281 45.875 279.469 46.1875C280.719 46.5 281.844 47.0312 282.844 47.7812C283.844 48.4688 284.656 49.375 285.281 50.5C285.906 51.625 286.219 53.0312 286.219 54.7188C286.219 57.4688 285.25 59.6875 283.312 61.375C281.438 63.125 278.906 64 275.719 64C274.844 64 273.938 63.8438 273 63.5312C272.062 63.2188 271.219 62.75 270.469 62.125C269.719 61.5 269.094 60.7188 268.594 59.7812C268.156 58.8438 267.938 57.75 267.938 56.5C267.938 55.5 268.188 54.4062 268.688 53.2188C269.25 52.0312 269.906 51.2812 270.656 50.9688C269.969 50.7188 269.625 50.2188 269.625 49.4688C269.625 48.7812 269.938 48.0938 270.562 47.4062C271.25 46.6562 272.156 46.1562 273.281 45.9062ZM274.219 51.3438C274.719 51.7188 274.969 52.25 274.969 52.9375C274.969 53.4375 274.75 54 274.312 54.625C273.875 55.25 273.656 55.75 273.656 56.125C273.656 56.8125 273.938 57.4062 274.5 57.9062C275.125 58.3438 275.75 58.5625 276.375 58.5625C277.188 58.5625 277.812 58.4062 278.25 58.0938C278.75 57.8438 279.094 57.5625 279.281 57.25C279.531 56.875 279.688 56.5 279.75 56.125C279.812 55.75 279.844 55.4688 279.844 55.2812C279.844 53.7188 279.5 52.6562 278.812 52.0938C278.125 51.5312 277.156 51.25 275.906 51.25C275.656 51.25 275.375 51.25 275.062 51.25C274.812 51.25 274.531 51.2812 274.219 51.3438ZM305.344 5.96875C305.094 5.46875 304.969 5.0625 304.969 4.75C304.969 3.75 305.438 2.9375 306.375 2.3125C307.375 1.6875 308.375 1.375 309.375 1.375C310 1.375 310.688 1.84375 311.438 2.78125C312.25 3.65625 313.031 4.8125 313.781 6.25C314.594 7.625 315.344 9.125 316.031 10.75C316.781 12.375 317.438 13.9375 318 15.4375C319.062 18.3125 319.938 21.3438 320.625 24.5312C321.312 27.6562 321.656 30.8438 321.656 34.0938C321.656 37.7812 321.344 41.25 320.719 44.5C320.094 47.75 319.281 50.75 318.281 53.5C317.344 56.25 316.25 58.7188 315 60.9062C313.812 63.0938 312.656 64.9688 311.531 66.5312C311.031 67.0938 310.406 67.375 309.656 67.375C308.719 67.375 307.75 67.0625 306.75 66.4375C305.812 65.875 305.344 65.1562 305.344 64.2812C305.344 64.0312 305.469 63.6562 305.719 63.1562C306.719 61.5938 307.75 59.7812 308.812 57.7188C309.938 55.6562 310.938 53.4375 311.812 51.0625C312.688 48.6875 313.406 46.2188 313.969 43.6562C314.594 41.0312 314.906 38.3438 314.906 35.5938C314.906 32.5938 314.625 29.7188 314.062 26.9688C313.5 24.2188 312.75 21.5938 311.812 19.0938C310.938 16.5938 309.938 14.25 308.812 12.0625C307.688 9.8125 306.531 7.78125 305.344 5.96875Z" fill="#98A357"/>
</svg>
