<svg width="254" height="33" viewBox="0 0 254 33" fill="none" xmlns="http://www.w3.org/2000/svg">
<path d="M0.632812 4.96094C0.424479 4.67448 0.320312 4.41406 0.320312 4.17969C0.320312 3.78906 0.502604 3.45052 0.867188 3.16406C1.23177 2.8776 1.60938 2.73438 2 2.73438C2.26042 2.73438 2.49479 2.82552 2.70312 3.00781C2.9375 3.16406 3.14583 3.3724 3.32812 3.63281C3.53646 3.89323 3.71875 4.16667 3.875 4.45312C4.05729 4.71354 4.21354 4.96094 4.34375 5.19531C4.94271 4.67448 5.61979 4.23177 6.375 3.86719C7.13021 3.5026 7.97656 3.32031 8.91406 3.32031C10.2682 3.32031 11.401 3.54167 12.3125 3.98438C13.25 4.40104 14.0052 4.96094 14.5781 5.66406C15.1771 6.36719 15.6198 7.17448 15.9062 8.08594C16.1927 8.97135 16.362 9.88281 16.4141 10.8203C16.4141 11.3672 16.3359 11.9531 16.1797 12.5781C16.0234 13.2031 15.776 13.8151 15.4375 14.4141C15.125 15.013 14.7214 15.5729 14.2266 16.0938C13.7318 16.5885 13.1458 17.0052 12.4688 17.3438C13.3021 18.151 14.0573 19.1667 14.7344 20.3906C15.4375 21.5885 15.9714 22.9297 16.3359 24.4141C16.3359 24.4661 16.3359 24.5182 16.3359 24.5703C16.362 24.5964 16.375 24.6354 16.375 24.6875C16.375 25.1042 16.1927 25.4167 15.8281 25.625C15.4896 25.8594 15.099 25.9766 14.6562 25.9766C14.4219 25.9766 14.2005 25.9245 13.9922 25.8203C13.7839 25.7161 13.6536 25.5599 13.6016 25.3516C13.1589 23.7109 12.5859 22.2917 11.8828 21.0938C11.1797 19.8958 10.2292 18.8672 9.03125 18.0078C7.78125 18.0078 6.71354 17.7734 5.82812 17.3047C5.82812 18.8672 5.80208 20.3516 5.75 21.7578C5.69792 23.1641 5.60677 24.3359 5.47656 25.2734C5.42448 25.6641 5.25521 25.9505 4.96875 26.1328C4.70833 26.3411 4.4349 26.4453 4.14844 26.4453C3.70573 26.4453 3.30208 26.3281 2.9375 26.0938C2.59896 25.8594 2.42969 25.5339 2.42969 25.1172C2.42969 24.0234 2.46875 22.7474 2.54688 21.2891C2.65104 19.8307 2.70312 18.3073 2.70312 16.7188C2.70312 15.2083 2.6901 13.7109 2.66406 12.2266C2.63802 10.7422 2.58594 9.41406 2.50781 8.24219C2.27344 7.7474 2 7.21354 1.6875 6.64062C1.375 6.06771 1.02344 5.50781 0.632812 4.96094ZM5.51562 8.08594C5.59375 9.02344 5.64583 10.013 5.67188 11.0547C5.72396 12.0703 5.76302 13.099 5.78906 14.1406C6.23177 14.5573 6.72656 14.8568 7.27344 15.0391C7.84635 15.1953 8.52344 15.2734 9.30469 15.2734C10.0859 15.2734 10.737 15.1042 11.2578 14.7656C11.7786 14.4271 12.1953 14.0104 12.5078 13.5156C12.8203 13.0208 13.0417 12.5 13.1719 11.9531C13.3021 11.3802 13.3672 10.8724 13.3672 10.4297C13.3151 9.96094 13.1979 9.47917 13.0156 8.98438C12.8333 8.48958 12.5729 8.04688 12.2344 7.65625C11.8958 7.26562 11.4661 6.9401 10.9453 6.67969C10.4505 6.41927 9.85156 6.28906 9.14844 6.28906C8.23698 6.28906 7.49479 6.45833 6.92188 6.79688C6.34896 7.13542 5.88021 7.5651 5.51562 8.08594ZM31.8047 14.1797C32.612 15.2995 33.0156 16.276 33.0156 17.1094C33.0156 17.9948 32.5599 18.5807 31.6484 18.8672L23.4844 21.2891C23.8229 21.8099 24.2526 22.2135 24.7734 22.5C25.3203 22.7865 25.8672 22.9297 26.4141 22.9297C27.2734 22.9297 28.0807 22.7995 28.8359 22.5391C29.6172 22.2526 30.3464 21.7578 31.0234 21.0547C31.2057 20.8724 31.4141 20.7812 31.6484 20.7812C31.9609 20.7812 32.2734 20.9375 32.5859 21.25C32.9245 21.5365 33.0938 21.862 33.0938 22.2266C33.0938 22.5911 32.9115 22.9688 32.5469 23.3594C32.2083 23.75 31.7526 24.1276 31.1797 24.4922C30.6068 24.8307 29.9557 25.1042 29.2266 25.3125C28.4974 25.5469 27.7552 25.6641 27 25.6641C26.2448 25.6641 25.4375 25.5469 24.5781 25.3125C23.7448 25.0781 22.9635 24.7135 22.2344 24.2188C21.5052 23.6979 20.9062 23.0339 20.4375 22.2266C19.9688 21.4193 19.7344 20.4297 19.7344 19.2578C19.7344 18.0078 20.138 16.5755 20.9453 14.9609C21.4661 13.9453 22.2604 13.2031 23.3281 12.7344C24.4219 12.2396 25.5677 11.9922 26.7656 11.9922C27.7552 11.9922 28.6927 12.1745 29.5781 12.5391C30.4896 12.9036 31.2318 13.4505 31.8047 14.1797ZM22.8203 18.6719L29.9297 16.6016C29.7995 15.9245 29.4479 15.4297 28.875 15.1172C28.3281 14.7786 27.7161 14.6094 27.0391 14.6094C26.2839 14.6094 25.6328 14.7526 25.0859 15.0391C24.5651 15.2995 24.1354 15.638 23.7969 16.0547C23.4583 16.4714 23.2109 16.9141 23.0547 17.3828C22.8984 17.8516 22.8203 18.2812 22.8203 18.6719ZM40.9844 12.8125C41.1406 12.6823 41.362 12.6172 41.6484 12.6172C42.5339 12.6953 43.3281 12.9427 44.0312 13.3594C44.7344 13.75 45.3203 14.2448 45.7891 14.8438C46.2839 15.4167 46.6484 16.0547 46.8828 16.7578C47.1432 17.4609 47.2734 18.138 47.2734 18.7891V18.9844C47.4557 19.5833 47.651 20.0521 47.8594 20.3906C48.0677 20.7292 48.2891 20.9896 48.5234 21.1719C48.7839 21.3542 49.0312 21.4714 49.2656 21.5234C49.526 21.5495 49.7865 21.5625 50.0469 21.5625C50.2812 21.5625 50.5286 21.5104 50.7891 21.4062C51.0755 21.3021 51.401 21.25 51.7656 21.25C52.1042 21.25 52.3776 21.3932 52.5859 21.6797C52.8203 21.9401 52.9375 22.2266 52.9375 22.5391C52.9375 22.8255 52.8464 23.0859 52.6641 23.3203C52.5078 23.5286 52.2865 23.7109 52 23.8672C51.7396 23.9974 51.4401 24.1016 51.1016 24.1797C50.7891 24.2318 50.4766 24.2578 50.1641 24.2578C49.1745 24.2578 48.3151 24.0495 47.5859 23.6328C46.8568 23.2161 46.2839 22.7344 45.8672 22.1875C45.3464 22.7865 44.7214 23.2552 43.9922 23.5938C43.263 23.9323 42.4948 24.1016 41.6875 24.1016C40.9583 24.1016 40.2292 23.9844 39.5 23.75C38.7708 23.5156 38.1198 23.1641 37.5469 22.6953C36.974 22.2266 36.5052 21.6536 36.1406 20.9766C35.776 20.2734 35.5938 19.4531 35.5938 18.5156C35.5938 17.9688 35.6849 17.3958 35.8672 16.7969C36.0755 16.1979 36.375 15.625 36.7656 15.0781C37.1562 14.5312 37.625 14.0495 38.1719 13.6328C38.7448 13.2161 39.4089 12.9297 40.1641 12.7734H40.3984C40.6589 12.7734 40.8542 12.7865 40.9844 12.8125ZM41.2188 15.2734C40.3073 15.5599 39.6432 15.9766 39.2266 16.5234C38.8099 17.0443 38.6016 17.6562 38.6016 18.3594C38.6016 19.1927 38.8099 19.9089 39.2266 20.5078C39.6693 21.0807 40.4766 21.3672 41.6484 21.3672C42.3255 21.3672 42.9245 21.1198 43.4453 20.625C43.9661 20.1302 44.2266 19.4661 44.2266 18.6328C44.2266 18.0599 44.1354 17.5911 43.9531 17.2266C43.7969 16.8359 43.5755 16.5234 43.2891 16.2891C43.0286 16.0286 42.7161 15.8333 42.3516 15.7031C41.987 15.5469 41.6094 15.4036 41.2188 15.2734ZM55.5547 4.96094C55.3464 4.67448 55.2422 4.41406 55.2422 4.17969C55.2422 3.78906 55.4245 3.45052 55.7891 3.16406C56.1536 2.8776 56.5312 2.73438 56.9219 2.73438C57.2865 2.73438 57.638 2.91667 57.9766 3.28125C58.3411 3.64583 58.6667 4.08854 58.9531 4.60938C59.2396 5.10417 59.5 5.625 59.7344 6.17188C59.9688 6.69271 60.1641 7.1224 60.3203 7.46094C60.3984 8.58073 60.4505 9.71354 60.4766 10.8594C60.5026 11.9792 60.5156 13.125 60.5156 14.2969C60.5156 16.1719 60.4896 17.9818 60.4375 19.7266C60.4115 21.4453 60.3724 23.0859 60.3203 24.6484C60.2943 25.0391 60.1641 25.3255 59.9297 25.5078C59.6953 25.7161 59.4089 25.8203 59.0703 25.8203C58.6797 25.8203 58.2891 25.7031 57.8984 25.4688C57.5339 25.2344 57.3516 24.9089 57.3516 24.4922C57.3516 23.3984 57.3906 22.1615 57.4688 20.7812C57.5729 19.375 57.625 17.9167 57.625 16.4062C57.625 14.974 57.612 13.5547 57.5859 12.1484C57.5599 10.7161 57.5078 9.41406 57.4297 8.24219C57.1953 7.7474 56.9219 7.21354 56.6094 6.64062C56.2969 6.06771 55.9453 5.50781 55.5547 4.96094ZM65.0859 4.96094C64.8776 4.67448 64.7734 4.41406 64.7734 4.17969C64.7734 3.78906 64.9557 3.45052 65.3203 3.16406C65.6849 2.8776 66.0625 2.73438 66.4531 2.73438C66.8177 2.73438 67.1693 2.91667 67.5078 3.28125C67.8724 3.64583 68.1979 4.08854 68.4844 4.60938C68.7708 5.10417 69.0312 5.625 69.2656 6.17188C69.5 6.69271 69.6953 7.1224 69.8516 7.46094C69.9297 8.58073 69.9818 9.71354 70.0078 10.8594C70.0339 11.9792 70.0469 13.125 70.0469 14.2969C70.0469 16.1719 70.0208 17.9818 69.9688 19.7266C69.9427 21.4453 69.9036 23.0859 69.8516 24.6484C69.8255 25.0391 69.6953 25.3255 69.4609 25.5078C69.2266 25.7161 68.9401 25.8203 68.6016 25.8203C68.2109 25.8203 67.8203 25.7031 67.4297 25.4688C67.0651 25.2344 66.8828 24.9089 66.8828 24.4922C66.8828 23.3984 66.9219 22.1615 67 20.7812C67.1042 19.375 67.1562 17.9167 67.1562 16.4062C67.1562 14.974 67.1432 13.5547 67.1172 12.1484C67.0911 10.7161 67.0391 9.41406 66.9609 8.24219C66.7266 7.7474 66.4531 7.21354 66.1406 6.64062C65.8281 6.06771 65.4766 5.50781 65.0859 4.96094ZM81.3359 31.5234C80.5807 32.1224 79.7083 32.4219 78.7188 32.4219C77.8594 32.4219 77 32.2135 76.1406 31.7969C75.3073 31.3802 74.6432 30.8203 74.1484 30.1172C74.0443 30.013 73.9922 29.8698 73.9922 29.6875C73.9922 29.349 74.1094 28.9844 74.3438 28.5938C74.6042 28.2292 74.9036 28.0469 75.2422 28.0469C75.3724 28.0469 75.5026 28.0859 75.6328 28.1641C76.1016 28.5807 76.5833 28.9062 77.0781 29.1406C77.599 29.375 78.0938 29.4922 78.5625 29.4922C79.4219 29.4922 80.112 28.9453 80.6328 27.8516C81.1797 26.7839 81.6094 25.2083 81.9219 23.125C81.5312 23.2552 81.1276 23.3594 80.7109 23.4375C80.3203 23.4896 79.9036 23.5156 79.4609 23.5156C79.0703 23.5156 78.5365 23.4896 77.8594 23.4375C77.1823 23.3854 76.5052 23.151 75.8281 22.7344C75.151 22.3177 74.5651 21.6667 74.0703 20.7812C73.5755 19.8698 73.3281 18.5547 73.3281 16.8359C73.3281 16.3672 73.3411 15.8854 73.3672 15.3906C73.3932 14.8958 73.4193 14.4141 73.4453 13.9453C73.4974 13.4505 73.5495 12.9948 73.6016 12.5781C73.6536 12.1354 73.7057 11.7578 73.7578 11.4453C73.8099 11.0286 73.9661 10.7292 74.2266 10.5469C74.487 10.3646 74.7734 10.2734 75.0859 10.2734C75.4505 10.2734 75.7891 10.3776 76.1016 10.5859C76.4141 10.7943 76.5703 11.0807 76.5703 11.4453C76.5703 11.9141 76.5182 12.487 76.4141 13.1641C76.3099 13.8411 76.2578 14.5443 76.2578 15.2734C76.2578 16.2891 76.2839 17.1484 76.3359 17.8516C76.388 18.5286 76.5312 19.0885 76.7656 19.5312C77 19.9479 77.3385 20.2474 77.7812 20.4297C78.25 20.612 78.875 20.7031 79.6562 20.7031C80.125 20.7031 80.5417 20.638 80.9062 20.5078C81.2969 20.3776 81.7526 20.2474 82.2734 20.1172C82.4297 18.1641 82.5078 16.1979 82.5078 14.2188C82.5078 13.3333 82.4948 12.487 82.4688 11.6797C82.4427 10.8464 82.4036 10.0911 82.3516 9.41406C82.3516 9.1276 82.4948 8.89323 82.7812 8.71094C83.0677 8.5026 83.4193 8.39844 83.8359 8.39844C84.1484 8.39844 84.4479 8.46354 84.7344 8.59375C85.0208 8.69792 85.2161 8.89323 85.3203 9.17969C85.3724 9.77865 85.4115 10.4167 85.4375 11.0938C85.4635 11.7448 85.4766 12.4089 85.4766 13.0859C85.4766 14.9089 85.3854 16.7969 85.2031 18.75C85.0469 20.6771 84.7865 22.5 84.4219 24.2188C84.0833 25.9375 83.6536 27.4479 83.1328 28.75C82.612 30.0521 82.013 30.9766 81.3359 31.5234ZM146.727 4.96094C146.518 4.67448 146.414 4.41406 146.414 4.17969C146.414 3.78906 146.596 3.45052 146.961 3.16406C147.326 2.8776 147.703 2.73438 148.094 2.73438C148.354 2.73438 148.589 2.82552 148.797 3.00781C149.031 3.16406 149.24 3.3724 149.422 3.63281C149.63 3.89323 149.812 4.16667 149.969 4.45312C150.151 4.71354 150.307 4.96094 150.438 5.19531C151.036 4.67448 151.714 4.23177 152.469 3.86719C153.224 3.5026 154.07 3.32031 155.008 3.32031C156.362 3.32031 157.495 3.54167 158.406 3.98438C159.344 4.40104 160.099 4.96094 160.672 5.66406C161.271 6.36719 161.714 7.17448 162 8.08594C162.286 8.97135 162.456 9.88281 162.508 10.8203C162.508 11.3672 162.43 11.9531 162.273 12.5781C162.117 13.2031 161.87 13.8151 161.531 14.4141C161.219 15.013 160.815 15.5729 160.32 16.0938C159.826 16.5885 159.24 17.0052 158.562 17.3438C159.396 18.151 160.151 19.1667 160.828 20.3906C161.531 21.5885 162.065 22.9297 162.43 24.4141C162.43 24.4661 162.43 24.5182 162.43 24.5703C162.456 24.5964 162.469 24.6354 162.469 24.6875C162.469 25.1042 162.286 25.4167 161.922 25.625C161.583 25.8594 161.193 25.9766 160.75 25.9766C160.516 25.9766 160.294 25.9245 160.086 25.8203C159.878 25.7161 159.747 25.5599 159.695 25.3516C159.253 23.7109 158.68 22.2917 157.977 21.0938C157.273 19.8958 156.323 18.8672 155.125 18.0078C153.875 18.0078 152.807 17.7734 151.922 17.3047C151.922 18.8672 151.896 20.3516 151.844 21.7578C151.792 23.1641 151.701 24.3359 151.57 25.2734C151.518 25.6641 151.349 25.9505 151.062 26.1328C150.802 26.3411 150.529 26.4453 150.242 26.4453C149.799 26.4453 149.396 26.3281 149.031 26.0938C148.693 25.8594 148.523 25.5339 148.523 25.1172C148.523 24.0234 148.562 22.7474 148.641 21.2891C148.745 19.8307 148.797 18.3073 148.797 16.7188C148.797 15.2083 148.784 13.7109 148.758 12.2266C148.732 10.7422 148.68 9.41406 148.602 8.24219C148.367 7.7474 148.094 7.21354 147.781 6.64062C147.469 6.06771 147.117 5.50781 146.727 4.96094ZM151.609 8.08594C151.688 9.02344 151.74 10.013 151.766 11.0547C151.818 12.0703 151.857 13.099 151.883 14.1406C152.326 14.5573 152.82 14.8568 153.367 15.0391C153.94 15.1953 154.617 15.2734 155.398 15.2734C156.18 15.2734 156.831 15.1042 157.352 14.7656C157.872 14.4271 158.289 14.0104 158.602 13.5156C158.914 13.0208 159.135 12.5 159.266 11.9531C159.396 11.3802 159.461 10.8724 159.461 10.4297C159.409 9.96094 159.292 9.47917 159.109 8.98438C158.927 8.48958 158.667 8.04688 158.328 7.65625C157.99 7.26562 157.56 6.9401 157.039 6.67969C156.544 6.41927 155.945 6.28906 155.242 6.28906C154.331 6.28906 153.589 6.45833 153.016 6.79688C152.443 7.13542 151.974 7.5651 151.609 8.08594ZM177.898 14.1797C178.706 15.2995 179.109 16.276 179.109 17.1094C179.109 17.9948 178.654 18.5807 177.742 18.8672L169.578 21.2891C169.917 21.8099 170.346 22.2135 170.867 22.5C171.414 22.7865 171.961 22.9297 172.508 22.9297C173.367 22.9297 174.174 22.7995 174.93 22.5391C175.711 22.2526 176.44 21.7578 177.117 21.0547C177.299 20.8724 177.508 20.7812 177.742 20.7812C178.055 20.7812 178.367 20.9375 178.68 21.25C179.018 21.5365 179.188 21.862 179.188 22.2266C179.188 22.5911 179.005 22.9688 178.641 23.3594C178.302 23.75 177.846 24.1276 177.273 24.4922C176.701 24.8307 176.049 25.1042 175.32 25.3125C174.591 25.5469 173.849 25.6641 173.094 25.6641C172.339 25.6641 171.531 25.5469 170.672 25.3125C169.839 25.0781 169.057 24.7135 168.328 24.2188C167.599 23.6979 167 23.0339 166.531 22.2266C166.062 21.4193 165.828 20.4297 165.828 19.2578C165.828 18.0078 166.232 16.5755 167.039 14.9609C167.56 13.9453 168.354 13.2031 169.422 12.7344C170.516 12.2396 171.661 11.9922 172.859 11.9922C173.849 11.9922 174.786 12.1745 175.672 12.5391C176.583 12.9036 177.326 13.4505 177.898 14.1797ZM168.914 18.6719L176.023 16.6016C175.893 15.9245 175.542 15.4297 174.969 15.1172C174.422 14.7786 173.81 14.6094 173.133 14.6094C172.378 14.6094 171.727 14.7526 171.18 15.0391C170.659 15.2995 170.229 15.638 169.891 16.0547C169.552 16.4714 169.305 16.9141 169.148 17.3828C168.992 17.8516 168.914 18.2812 168.914 18.6719ZM192.117 11.9141C192.534 12.0443 192.833 12.2656 193.016 12.5781C193.198 12.8906 193.289 13.2161 193.289 13.5547C193.289 13.8932 193.172 14.2057 192.938 14.4922C192.703 14.7526 192.43 14.8828 192.117 14.8828C191.831 14.8828 191.531 14.8698 191.219 14.8438C190.906 14.8177 190.581 14.8047 190.242 14.8047C189.487 14.8047 188.758 14.9089 188.055 15.1172C187.378 15.3255 186.831 15.7682 186.414 16.4453C186.076 16.9661 185.841 17.474 185.711 17.9688C185.581 18.4375 185.516 18.8802 185.516 19.2969C185.516 20.3385 185.867 21.1719 186.57 21.7969C187.273 22.3958 188.081 22.6953 188.992 22.6953C189.852 22.6953 190.555 22.5651 191.102 22.3047C191.674 22.0182 192.299 21.5234 192.977 20.8203C193.159 20.638 193.367 20.5469 193.602 20.5469C193.914 20.5469 194.227 20.7031 194.539 21.0156C194.878 21.3021 195.047 21.6276 195.047 21.9922C195.047 22.3307 194.891 22.7083 194.578 23.125C194.266 23.5417 193.836 23.9323 193.289 24.2969C192.768 24.6354 192.169 24.9219 191.492 25.1562C190.841 25.3906 190.164 25.5078 189.461 25.5078C188.732 25.5078 187.951 25.3906 187.117 25.1562C186.284 24.9479 185.516 24.5964 184.812 24.1016C184.109 23.5807 183.523 22.9297 183.055 22.1484C182.586 21.3672 182.352 20.4036 182.352 19.2578C182.352 17.9557 182.768 16.5495 183.602 15.0391C183.966 14.388 184.409 13.8542 184.93 13.4375C185.477 13.0208 186.049 12.6953 186.648 12.4609C187.247 12.2005 187.859 12.0312 188.484 11.9531C189.135 11.849 189.76 11.7969 190.359 11.7969C191.01 11.7969 191.596 11.8359 192.117 11.9141ZM198.992 24.4922C199.122 23.4766 199.214 22.4219 199.266 21.3281C199.344 20.2344 199.383 19.1406 199.383 18.0469V12.9297C199.383 12.6172 199.526 12.3828 199.812 12.2266C200.099 12.0443 200.424 11.9531 200.789 11.9531C201.102 11.9531 201.401 12.0182 201.688 12.1484C201.974 12.2786 202.169 12.487 202.273 12.7734C202.299 13.5026 202.312 14.349 202.312 15.3125C202.339 16.276 202.352 17.2786 202.352 18.3203C202.352 19.4141 202.312 20.5208 202.234 21.6406C202.156 22.7344 202.091 23.7891 202.039 24.8047C201.961 25.2474 201.779 25.5729 201.492 25.7812C201.206 26.0156 200.893 26.1328 200.555 26.1328C200.19 26.1328 199.839 26.0156 199.5 25.7812C199.161 25.5469 198.992 25.1823 198.992 24.6875V24.4922ZM202.977 6.52344C202.846 7.17448 202.586 7.66927 202.195 8.00781C201.805 8.34635 201.336 8.51562 200.789 8.51562C200.581 8.51562 200.333 8.48958 200.047 8.4375C199.76 8.35938 199.487 8.24219 199.227 8.08594C198.992 7.90365 198.784 7.66927 198.602 7.38281C198.419 7.07031 198.328 6.67969 198.328 6.21094C198.328 5.3776 198.562 4.77865 199.031 4.41406C199.5 4.02344 200.112 3.82812 200.867 3.82812C201.622 3.82812 202.169 4.0625 202.508 4.53125C202.846 5 203.016 5.53385 203.016 6.13281C203.016 6.1849 203.003 6.25 202.977 6.32812C202.977 6.40625 202.977 6.47135 202.977 6.52344ZM206.727 13.5547C206.518 13.2682 206.414 13.0078 206.414 12.7734C206.414 12.3828 206.596 12.0443 206.961 11.7578C207.326 11.4714 207.703 11.3281 208.094 11.3281C208.406 11.3281 208.68 11.4453 208.914 11.6797C209.174 11.9141 209.409 12.1875 209.617 12.5C209.826 12.8125 210.008 13.151 210.164 13.5156C210.32 13.8542 210.451 14.1406 210.555 14.375C211.076 13.9583 211.74 13.5938 212.547 13.2812C213.38 12.9427 214.266 12.7734 215.203 12.7734C216.036 12.7734 216.831 12.9427 217.586 13.2812C218.367 13.6198 219.044 14.0755 219.617 14.6484C220.216 15.2214 220.685 15.9115 221.023 16.7188C221.388 17.5 221.57 18.3333 221.57 19.2188C221.57 19.9479 221.453 20.7292 221.219 21.5625C220.984 22.3958 220.594 23.1641 220.047 23.8672C219.5 24.5703 218.784 25.1562 217.898 25.625C217.039 26.0938 215.984 26.3281 214.734 26.3281C214.135 26.3281 213.549 26.263 212.977 26.1328C212.404 26.0286 211.857 25.8724 211.336 25.6641C211.31 27.1224 211.284 28.3203 211.258 29.2578C211.258 30.1953 211.206 30.9375 211.102 31.4844C211.023 32.0312 210.854 32.4089 210.594 32.6172C210.359 32.8516 209.995 32.9688 209.5 32.9688C209.135 32.9167 208.823 32.7865 208.562 32.5781C208.328 32.3958 208.211 32.1354 208.211 31.7969V31.6016L208.328 28.5547C208.38 27.487 208.406 26.3672 208.406 25.1953C208.432 24.0495 208.445 22.9036 208.445 21.7578C208.445 20.638 208.432 19.6224 208.406 18.7109C208.406 17.7734 208.393 17.1484 208.367 16.8359C208.081 16.3932 207.82 15.8984 207.586 15.3516C207.378 14.7786 207.091 14.1797 206.727 13.5547ZM211.297 17.3047C211.297 18.0339 211.31 18.8932 211.336 19.8828C211.362 20.8464 211.375 21.849 211.375 22.8906C212.391 23.3333 213.406 23.5547 214.422 23.5547C215.229 23.5547 215.893 23.4375 216.414 23.2031C216.961 22.9688 217.391 22.6693 217.703 22.3047C218.016 21.9141 218.224 21.4844 218.328 21.0156C218.458 20.5469 218.523 20.0911 218.523 19.6484C218.523 18.3984 218.172 17.4219 217.469 16.7188C216.792 16.0156 215.906 15.6641 214.812 15.6641C214.057 15.6641 213.406 15.8333 212.859 16.1719C212.339 16.4844 211.818 16.862 211.297 17.3047ZM236.57 14.1797C237.378 15.2995 237.781 16.276 237.781 17.1094C237.781 17.9948 237.326 18.5807 236.414 18.8672L228.25 21.2891C228.589 21.8099 229.018 22.2135 229.539 22.5C230.086 22.7865 230.633 22.9297 231.18 22.9297C232.039 22.9297 232.846 22.7995 233.602 22.5391C234.383 22.2526 235.112 21.7578 235.789 21.0547C235.971 20.8724 236.18 20.7812 236.414 20.7812C236.727 20.7812 237.039 20.9375 237.352 21.25C237.69 21.5365 237.859 21.862 237.859 22.2266C237.859 22.5911 237.677 22.9688 237.312 23.3594C236.974 23.75 236.518 24.1276 235.945 24.4922C235.372 24.8307 234.721 25.1042 233.992 25.3125C233.263 25.5469 232.521 25.6641 231.766 25.6641C231.01 25.6641 230.203 25.5469 229.344 25.3125C228.51 25.0781 227.729 24.7135 227 24.2188C226.271 23.6979 225.672 23.0339 225.203 22.2266C224.734 21.4193 224.5 20.4297 224.5 19.2578C224.5 18.0078 224.904 16.5755 225.711 14.9609C226.232 13.9453 227.026 13.2031 228.094 12.7344C229.188 12.2396 230.333 11.9922 231.531 11.9922C232.521 11.9922 233.458 12.1745 234.344 12.5391C235.255 12.9036 235.997 13.4505 236.57 14.1797ZM227.586 18.6719L234.695 16.6016C234.565 15.9245 234.214 15.4297 233.641 15.1172C233.094 14.7786 232.482 14.6094 231.805 14.6094C231.049 14.6094 230.398 14.7526 229.852 15.0391C229.331 15.2995 228.901 15.638 228.562 16.0547C228.224 16.4714 227.977 16.9141 227.82 17.3828C227.664 17.8516 227.586 18.2812 227.586 18.6719ZM241.492 16.6797C241.232 16.3151 241.102 15.8073 241.102 15.1562C241.102 14.4271 241.232 13.75 241.492 13.125C241.753 12.474 242.13 11.9141 242.625 11.4453C243.12 10.9766 243.732 10.612 244.461 10.3516C245.19 10.0651 246.036 9.92188 247 9.92188C247.599 9.92188 248.224 10.013 248.875 10.1953C249.526 10.3516 250.112 10.5599 250.633 10.8203C251.18 11.0807 251.622 11.3802 251.961 11.7188C252.299 12.0312 252.469 12.3438 252.469 12.6562C252.469 13.099 252.299 13.4505 251.961 13.7109C251.622 13.9714 251.31 14.1016 251.023 14.1016C250.919 14.1016 250.789 14.0755 250.633 14.0234C249.747 13.5807 248.966 13.2682 248.289 13.0859C247.612 12.9036 247.013 12.8125 246.492 12.8125C245.659 12.8125 245.034 13.0469 244.617 13.5156C244.227 13.9583 244.031 14.5182 244.031 15.1953C244.031 15.8203 244.253 16.3021 244.695 16.6406C245.138 16.9531 245.685 17.2266 246.336 17.4609C247.013 17.6693 247.742 17.8776 248.523 18.0859C249.305 18.2682 250.021 18.5417 250.672 18.9062C251.349 19.2708 251.909 19.7526 252.352 20.3516C252.794 20.9245 253.016 21.7188 253.016 22.7344C253.016 24.1146 252.508 25.1302 251.492 25.7812C250.503 26.4583 249.148 26.7969 247.43 26.7969C246.727 26.7969 245.997 26.7578 245.242 26.6797C244.487 26.6016 243.797 26.4714 243.172 26.2891C242.573 26.1328 242.078 25.9115 241.688 25.625C241.297 25.3385 241.102 24.974 241.102 24.5312C241.102 24.1927 241.193 23.8802 241.375 23.5938C241.583 23.2812 241.857 23.125 242.195 23.125C242.247 23.125 242.286 23.138 242.312 23.1641C242.339 23.1641 242.378 23.1641 242.43 23.1641C243.341 23.5807 244.201 23.8672 245.008 24.0234C245.815 24.1536 246.518 24.2188 247.117 24.2188C248.289 24.2188 249.109 24.0755 249.578 23.7891C250.047 23.5026 250.281 23.099 250.281 22.5781C250.281 22.1615 250.112 21.8099 249.773 21.5234C249.461 21.2109 249.057 20.9635 248.562 20.7812C248.094 20.5729 247.573 20.3906 247 20.2344C246.453 20.0781 245.945 19.9219 245.477 19.7656C244.747 19.5312 244.031 19.1927 243.328 18.75C242.651 18.3073 242.039 17.6172 241.492 16.6797Z" fill="#204B5A"/>
<path d="M105.555 3.32031C105.034 4.10156 104.526 4.96094 104.031 5.89844C103.536 6.8099 103.107 7.79948 102.742 8.86719C102.378 9.90885 102.078 11.0156 101.844 12.1875C101.635 13.3333 101.531 14.5443 101.531 15.8203C101.531 16.9401 101.648 18.0339 101.883 19.1016C102.143 20.1693 102.469 21.1849 102.859 22.1484C103.25 23.112 103.667 24.0104 104.109 24.8438C104.578 25.6771 105.034 26.4193 105.477 27.0703C105.555 27.2266 105.594 27.3698 105.594 27.5C105.594 27.8906 105.372 28.2161 104.93 28.4766C104.513 28.737 104.096 28.8672 103.68 28.8672C103.419 28.8672 103.133 28.6849 102.82 28.3203C102.508 27.9557 102.182 27.487 101.844 26.9141C101.531 26.3672 101.219 25.7552 100.906 25.0781C100.62 24.401 100.372 23.763 100.164 23.1641C99.7474 21.9922 99.4089 20.7422 99.1484 19.4141C98.888 18.0599 98.7578 16.6016 98.7578 15.0391C98.7578 13.6849 98.888 12.3568 99.1484 11.0547C99.4349 9.72656 99.7865 8.47656 100.203 7.30469C100.646 6.13281 101.128 5.0651 101.648 4.10156C102.169 3.11198 102.69 2.27865 103.211 1.60156C103.341 1.47135 103.549 1.40625 103.836 1.40625C104.253 1.40625 104.656 1.53646 105.047 1.79688C105.464 2.05729 105.672 2.40885 105.672 2.85156C105.672 3.00781 105.633 3.16406 105.555 3.32031ZM110.867 2.85156C111.232 2.33073 111.935 1.875 112.977 1.48438C114.018 1.09375 115.177 0.898438 116.453 0.898438C117.469 0.898438 118.367 1.05469 119.148 1.36719C119.956 1.65365 120.633 2.07031 121.18 2.61719C121.727 3.13802 122.13 3.75 122.391 4.45312C122.677 5.15625 122.82 5.91146 122.82 6.71875C122.82 7.60417 122.651 8.4375 122.312 9.21875C122 9.97396 121.57 10.651 121.023 11.25C120.477 11.8229 119.852 12.3177 119.148 12.7344C118.445 13.125 117.716 13.3984 116.961 13.5547V16.9141C116.883 17.3568 116.674 17.6693 116.336 17.8516C116.023 18.0339 115.698 18.125 115.359 18.125C114.969 18.125 114.656 18.0469 114.422 17.8906C114.188 17.7344 114.07 17.513 114.07 17.2266L114.148 13.5547C114.148 13.5026 114.135 13.4505 114.109 13.3984C114.109 13.3464 114.109 13.2943 114.109 13.2422C114.109 12.6953 114.266 12.2656 114.578 11.9531C114.891 11.6406 115.268 11.3932 115.711 11.2109C116.154 11.0026 116.622 10.8203 117.117 10.6641C117.612 10.5078 118.042 10.3125 118.406 10.0781C118.849 9.79167 119.24 9.41406 119.578 8.94531C119.943 8.45052 120.125 7.83854 120.125 7.10938C120.125 6.61458 120.021 6.14583 119.812 5.70312C119.63 5.23438 119.357 4.83073 118.992 4.49219C118.654 4.15365 118.25 3.89323 117.781 3.71094C117.339 3.5026 116.857 3.39844 116.336 3.39844C115.581 3.39844 114.839 3.56771 114.109 3.90625C113.406 4.21875 112.82 4.59635 112.352 5.03906C112.221 5.14323 112.078 5.19531 111.922 5.19531C111.609 5.19531 111.31 5.02604 111.023 4.6875C110.737 4.34896 110.594 3.9974 110.594 3.63281C110.594 3.32031 110.685 3.0599 110.867 2.85156ZM113.992 19.9609C114.174 19.9089 114.357 19.8828 114.539 19.8828C114.721 19.8828 114.904 19.8828 115.086 19.8828C115.581 19.8828 116.076 19.9479 116.57 20.0781C117.091 20.2083 117.56 20.4297 117.977 20.7422C118.393 21.0286 118.732 21.4062 118.992 21.875C119.253 22.3438 119.383 22.9297 119.383 23.6328C119.383 24.7786 118.979 25.7031 118.172 26.4062C117.391 27.1354 116.336 27.5 115.008 27.5C114.643 27.5 114.266 27.4349 113.875 27.3047C113.484 27.1745 113.133 26.9792 112.82 26.7188C112.508 26.4583 112.247 26.1328 112.039 25.7422C111.857 25.3516 111.766 24.8958 111.766 24.375C111.766 23.9583 111.87 23.5026 112.078 23.0078C112.312 22.513 112.586 22.2005 112.898 22.0703C112.612 21.9661 112.469 21.7578 112.469 21.4453C112.469 21.1589 112.599 20.8724 112.859 20.5859C113.146 20.2734 113.523 20.0651 113.992 19.9609ZM114.383 22.2266C114.591 22.3828 114.695 22.6042 114.695 22.8906C114.695 23.099 114.604 23.3333 114.422 23.5938C114.24 23.8542 114.148 24.0625 114.148 24.2188C114.148 24.5052 114.266 24.7526 114.5 24.9609C114.76 25.1432 115.021 25.2344 115.281 25.2344C115.62 25.2344 115.88 25.1693 116.062 25.0391C116.271 24.9349 116.414 24.8177 116.492 24.6875C116.596 24.5312 116.661 24.375 116.688 24.2188C116.714 24.0625 116.727 23.9453 116.727 23.8672C116.727 23.2161 116.583 22.7734 116.297 22.5391C116.01 22.3047 115.607 22.1875 115.086 22.1875C114.982 22.1875 114.865 22.1875 114.734 22.1875C114.63 22.1875 114.513 22.2005 114.383 22.2266ZM127.352 3.32031C127.247 3.11198 127.195 2.94271 127.195 2.8125C127.195 2.39583 127.391 2.05729 127.781 1.79688C128.198 1.53646 128.615 1.40625 129.031 1.40625C129.292 1.40625 129.578 1.60156 129.891 1.99219C130.229 2.35677 130.555 2.83854 130.867 3.4375C131.206 4.01042 131.518 4.63542 131.805 5.3125C132.117 5.98958 132.391 6.64062 132.625 7.26562C133.068 8.46354 133.432 9.72656 133.719 11.0547C134.005 12.3568 134.148 13.6849 134.148 15.0391C134.148 16.5755 134.018 18.0208 133.758 19.375C133.497 20.7292 133.159 21.9792 132.742 23.125C132.352 24.2708 131.896 25.2995 131.375 26.2109C130.88 27.1224 130.398 27.9036 129.93 28.5547C129.721 28.7891 129.461 28.9062 129.148 28.9062C128.758 28.9062 128.354 28.776 127.938 28.5156C127.547 28.2812 127.352 27.9818 127.352 27.6172C127.352 27.513 127.404 27.3568 127.508 27.1484C127.924 26.4974 128.354 25.7422 128.797 24.8828C129.266 24.0234 129.682 23.099 130.047 22.1094C130.411 21.1198 130.711 20.0911 130.945 19.0234C131.206 17.9297 131.336 16.8099 131.336 15.6641C131.336 14.4141 131.219 13.2161 130.984 12.0703C130.75 10.9245 130.438 9.83073 130.047 8.78906C129.682 7.7474 129.266 6.77083 128.797 5.85938C128.328 4.92188 127.846 4.07552 127.352 3.32031Z" fill="#204B5A"/>
<path d="M105.555 3.32031C105.034 4.10156 104.526 4.96094 104.031 5.89844C103.536 6.8099 103.107 7.79948 102.742 8.86719C102.378 9.90885 102.078 11.0156 101.844 12.1875C101.635 13.3333 101.531 14.5443 101.531 15.8203C101.531 16.9401 101.648 18.0339 101.883 19.1016C102.143 20.1693 102.469 21.1849 102.859 22.1484C103.25 23.112 103.667 24.0104 104.109 24.8438C104.578 25.6771 105.034 26.4193 105.477 27.0703C105.555 27.2266 105.594 27.3698 105.594 27.5C105.594 27.8906 105.372 28.2161 104.93 28.4766C104.513 28.737 104.096 28.8672 103.68 28.8672C103.419 28.8672 103.133 28.6849 102.82 28.3203C102.508 27.9557 102.182 27.487 101.844 26.9141C101.531 26.3672 101.219 25.7552 100.906 25.0781C100.62 24.401 100.372 23.763 100.164 23.1641C99.7474 21.9922 99.4089 20.7422 99.1484 19.4141C98.888 18.0599 98.7578 16.6016 98.7578 15.0391C98.7578 13.6849 98.888 12.3568 99.1484 11.0547C99.4349 9.72656 99.7865 8.47656 100.203 7.30469C100.646 6.13281 101.128 5.0651 101.648 4.10156C102.169 3.11198 102.69 2.27865 103.211 1.60156C103.341 1.47135 103.549 1.40625 103.836 1.40625C104.253 1.40625 104.656 1.53646 105.047 1.79688C105.464 2.05729 105.672 2.40885 105.672 2.85156C105.672 3.00781 105.633 3.16406 105.555 3.32031ZM110.867 2.85156C111.232 2.33073 111.935 1.875 112.977 1.48438C114.018 1.09375 115.177 0.898438 116.453 0.898438C117.469 0.898438 118.367 1.05469 119.148 1.36719C119.956 1.65365 120.633 2.07031 121.18 2.61719C121.727 3.13802 122.13 3.75 122.391 4.45312C122.677 5.15625 122.82 5.91146 122.82 6.71875C122.82 7.60417 122.651 8.4375 122.312 9.21875C122 9.97396 121.57 10.651 121.023 11.25C120.477 11.8229 119.852 12.3177 119.148 12.7344C118.445 13.125 117.716 13.3984 116.961 13.5547V16.9141C116.883 17.3568 116.674 17.6693 116.336 17.8516C116.023 18.0339 115.698 18.125 115.359 18.125C114.969 18.125 114.656 18.0469 114.422 17.8906C114.188 17.7344 114.07 17.513 114.07 17.2266L114.148 13.5547C114.148 13.5026 114.135 13.4505 114.109 13.3984C114.109 13.3464 114.109 13.2943 114.109 13.2422C114.109 12.6953 114.266 12.2656 114.578 11.9531C114.891 11.6406 115.268 11.3932 115.711 11.2109C116.154 11.0026 116.622 10.8203 117.117 10.6641C117.612 10.5078 118.042 10.3125 118.406 10.0781C118.849 9.79167 119.24 9.41406 119.578 8.94531C119.943 8.45052 120.125 7.83854 120.125 7.10938C120.125 6.61458 120.021 6.14583 119.812 5.70312C119.63 5.23438 119.357 4.83073 118.992 4.49219C118.654 4.15365 118.25 3.89323 117.781 3.71094C117.339 3.5026 116.857 3.39844 116.336 3.39844C115.581 3.39844 114.839 3.56771 114.109 3.90625C113.406 4.21875 112.82 4.59635 112.352 5.03906C112.221 5.14323 112.078 5.19531 111.922 5.19531C111.609 5.19531 111.31 5.02604 111.023 4.6875C110.737 4.34896 110.594 3.9974 110.594 3.63281C110.594 3.32031 110.685 3.0599 110.867 2.85156ZM113.992 19.9609C114.174 19.9089 114.357 19.8828 114.539 19.8828C114.721 19.8828 114.904 19.8828 115.086 19.8828C115.581 19.8828 116.076 19.9479 116.57 20.0781C117.091 20.2083 117.56 20.4297 117.977 20.7422C118.393 21.0286 118.732 21.4062 118.992 21.875C119.253 22.3438 119.383 22.9297 119.383 23.6328C119.383 24.7786 118.979 25.7031 118.172 26.4062C117.391 27.1354 116.336 27.5 115.008 27.5C114.643 27.5 114.266 27.4349 113.875 27.3047C113.484 27.1745 113.133 26.9792 112.82 26.7188C112.508 26.4583 112.247 26.1328 112.039 25.7422C111.857 25.3516 111.766 24.8958 111.766 24.375C111.766 23.9583 111.87 23.5026 112.078 23.0078C112.312 22.513 112.586 22.2005 112.898 22.0703C112.612 21.9661 112.469 21.7578 112.469 21.4453C112.469 21.1589 112.599 20.8724 112.859 20.5859C113.146 20.2734 113.523 20.0651 113.992 19.9609ZM114.383 22.2266C114.591 22.3828 114.695 22.6042 114.695 22.8906C114.695 23.099 114.604 23.3333 114.422 23.5938C114.24 23.8542 114.148 24.0625 114.148 24.2188C114.148 24.5052 114.266 24.7526 114.5 24.9609C114.76 25.1432 115.021 25.2344 115.281 25.2344C115.62 25.2344 115.88 25.1693 116.062 25.0391C116.271 24.9349 116.414 24.8177 116.492 24.6875C116.596 24.5312 116.661 24.375 116.688 24.2188C116.714 24.0625 116.727 23.9453 116.727 23.8672C116.727 23.2161 116.583 22.7734 116.297 22.5391C116.01 22.3047 115.607 22.1875 115.086 22.1875C114.982 22.1875 114.865 22.1875 114.734 22.1875C114.63 22.1875 114.513 22.2005 114.383 22.2266ZM127.352 3.32031C127.247 3.11198 127.195 2.94271 127.195 2.8125C127.195 2.39583 127.391 2.05729 127.781 1.79688C128.198 1.53646 128.615 1.40625 129.031 1.40625C129.292 1.40625 129.578 1.60156 129.891 1.99219C130.229 2.35677 130.555 2.83854 130.867 3.4375C131.206 4.01042 131.518 4.63542 131.805 5.3125C132.117 5.98958 132.391 6.64062 132.625 7.26562C133.068 8.46354 133.432 9.72656 133.719 11.0547C134.005 12.3568 134.148 13.6849 134.148 15.0391C134.148 16.5755 134.018 18.0208 133.758 19.375C133.497 20.7292 133.159 21.9792 132.742 23.125C132.352 24.2708 131.896 25.2995 131.375 26.2109C130.88 27.1224 130.398 27.9036 129.93 28.5547C129.721 28.7891 129.461 28.9062 129.148 28.9062C128.758 28.9062 128.354 28.776 127.938 28.5156C127.547 28.2812 127.352 27.9818 127.352 27.6172C127.352 27.513 127.404 27.3568 127.508 27.1484C127.924 26.4974 128.354 25.7422 128.797 24.8828C129.266 24.0234 129.682 23.099 130.047 22.1094C130.411 21.1198 130.711 20.0911 130.945 19.0234C131.206 17.9297 131.336 16.8099 131.336 15.6641C131.336 14.4141 131.219 13.2161 130.984 12.0703C130.75 10.9245 130.438 9.83073 130.047 8.78906C129.682 7.7474 129.266 6.77083 128.797 5.85938C128.328 4.92188 127.846 4.07552 127.352 3.32031Z" fill="#98A357"/>
</svg>
