<svg id="visual" viewBox="0 0 900 600" width="900" height="600" xmlns="http://www.w3.org/2000/svg" xmlns:xlink="http://www.w3.org/1999/xlink" version="1.1"><rect x="0" y="0" width="900" height="600" fill="#FFFFFF"></rect><path d="M0 410L21.5 421C43 432 86 454 128.8 452.5C171.7 451 214.3 426 257.2 415C300 404 343 407 385.8 418.2C428.7 429.3 471.3 448.7 514.2 443C557 437.3 600 406.7 642.8 394.7C685.7 382.7 728.3 389.3 771.2 404.7C814 420 857 444 878.5 456L900 468L900 601L878.5 601C857 601 814 601 771.2 601C728.3 601 685.7 601 642.8 601C600 601 557 601 514.2 601C471.3 601 428.7 601 385.8 601C343 601 300 601 257.2 601C214.3 601 171.7 601 128.8 601C86 601 43 601 21.5 601L0 601Z" fill="#FFEFED" stroke-linecap="round" stroke-linejoin="miter"></path></svg>